<svg width="264" height="46" viewBox="0 0 264 46" fill="none" xmlns="http://www.w3.org/2000/svg">
<g clip-path="url(#clip0)">
<path d="M18.5 38.0903L34.6875 28.5772V9.5677L18.5 19.0796V38.0903Z" fill="#000001"/>
<path d="M21.9688 29.1598V32.0625L28.9062 27.8402V24.9375L21.9688 29.1598Z" fill="white"/>
<path d="M18.5 0.0902557L2.3125 9.56769V28.5772L18.5 38.0903V19.0796L34.6875 9.56769L18.5 0.0902557Z" fill="url(#paint0_linear)"/>
</g>
<g filter="url(#filter0_d)">
<path d="M40.9457 28.0638V10.023H44.4923C45.1326 11.0246 46.4339 13.0442 48.396 16.0818C50.3581 19.1194 51.5526 20.9666 51.9795 21.6233C52.1027 21.8122 52.312 22.1323 52.6076 22.5839C52.9113 23.0272 53.1248 23.3433 53.2479 23.5321C53.1904 20.7162 53.1617 19.2548 53.1617 19.1481V10.023H56.2034V28.0638H52.6076L44.4677 15.3799L43.8766 14.407C43.9422 16.5744 43.9751 18.0973 43.9751 18.9757V28.0638H40.9457ZM66.0304 28.3224C63.8548 28.3224 62.1595 27.6985 60.9445 26.4506C59.7377 25.1945 59.1343 23.4623 59.1343 21.2539C59.1343 19.103 59.7048 17.3912 60.846 16.1187C61.9871 14.8462 63.5429 14.2059 65.5132 14.1977C67.3768 14.1977 68.8217 14.7806 69.8479 15.9463C70.8823 17.1121 71.3995 18.6596 71.3995 20.5889C71.3995 20.7285 71.3954 20.9542 71.3872 21.2662C71.3872 21.5782 71.3872 21.808 71.3872 21.9558H62.3853C62.4181 23.2201 62.7629 24.2012 63.4197 24.899C64.0847 25.5886 64.996 25.9334 66.1535 25.9334C67.6313 25.9334 69.0516 25.5476 70.4144 24.7758L70.87 27.0664C69.5154 27.9037 67.9022 28.3224 66.0304 28.3224ZM62.4469 19.9239H68.3578C68.3578 18.8238 68.1074 17.9782 67.6067 17.3871C67.1059 16.796 66.4121 16.5005 65.5255 16.5005C64.6963 16.5005 63.9944 16.7878 63.4197 17.3625C62.8532 17.9372 62.529 18.791 62.4469 19.9239ZM83.8003 27.0048C82.7248 27.8832 81.3086 28.3224 79.5517 28.3224C77.7949 28.3224 76.3787 27.8832 75.3032 27.0048C74.236 26.1263 73.7023 24.8374 73.7023 23.138V14.5302H76.9411V23.0149C76.9411 24.0247 77.1504 24.7553 77.5691 25.2069C77.996 25.6584 78.6692 25.8842 79.5887 25.8842C80.4918 25.8842 81.1485 25.6625 81.559 25.2192C81.9777 24.7676 82.1871 24.0329 82.1871 23.0149V14.5302H85.4135V23.138C85.4135 24.8292 84.8757 26.1181 83.8003 27.0048ZM88.3813 28.0638V14.5302H91.0905L91.5092 16.599C92.3958 15.1787 93.6806 14.4686 95.3636 14.4686C95.7166 14.4686 96.004 14.485 96.2256 14.5178L96.1764 17.2147C95.848 17.1655 95.5073 17.1408 95.1543 17.1408C93.9638 17.1408 93.0731 17.4569 92.482 18.0891C91.8991 18.7212 91.6077 19.5996 91.6077 20.7244V28.0638H88.3813ZM101.669 28.3224C100.413 28.3224 99.3946 27.9776 98.6146 27.288C97.8429 26.5902 97.4571 25.5886 97.4571 24.2833C97.4571 22.8794 97.9168 21.8409 98.8363 21.1677C99.7558 20.4863 101.143 20.0553 102.999 19.8747C103.253 19.8418 103.528 19.809 103.824 19.7761C104.119 19.7433 104.452 19.7105 104.821 19.6776C105.191 19.6448 105.482 19.6161 105.695 19.5914V18.8772C105.695 18.0562 105.507 17.461 105.129 17.0916C104.751 16.7139 104.177 16.5251 103.405 16.5251C102.305 16.5251 100.946 16.833 99.3289 17.4487C99.3207 17.4241 99.1852 17.0505 98.9225 16.3281C98.6598 15.6056 98.5243 15.2362 98.5161 15.2198C100.109 14.5384 101.833 14.1977 103.688 14.1977C105.511 14.1977 106.837 14.5958 107.666 15.3922C108.495 16.1803 108.91 17.461 108.91 19.2343V28.0638H106.521C106.512 28.031 106.422 27.756 106.25 27.2388C106.077 26.7215 105.991 26.4465 105.991 26.4137C105.318 27.0705 104.657 27.5548 104.008 27.8668C103.368 28.1706 102.588 28.3224 101.669 28.3224ZM102.543 26.0319C103.29 26.0319 103.939 25.8554 104.489 25.5024C105.047 25.1412 105.445 24.7061 105.683 24.1971V21.5864C105.659 21.5864 105.441 21.6028 105.031 21.6356C104.628 21.6685 104.411 21.6849 104.378 21.6849C103.072 21.7998 102.116 22.0461 101.509 22.4238C100.901 22.8014 100.597 23.4089 100.597 24.2463C100.597 24.821 100.766 25.2643 101.102 25.5763C101.439 25.8801 101.919 26.0319 102.543 26.0319ZM116.902 28.2485C115.974 28.2485 115.202 28.1418 114.587 27.9284C113.979 27.7067 113.499 27.3578 113.146 26.8816C112.793 26.4055 112.546 25.839 112.407 25.1822C112.267 24.5255 112.198 23.7086 112.198 22.7316V9.54278L115.424 9.33343V22.6701C115.424 23.8851 115.568 24.7102 115.855 25.1453C116.142 25.5722 116.701 25.7856 117.53 25.7856C117.94 25.7856 118.462 25.7405 119.094 25.6502L119.18 27.953C119.172 27.953 119.069 27.9735 118.872 28.0146C118.683 28.0556 118.498 28.0885 118.318 28.1131C118.145 28.1459 117.924 28.1747 117.653 28.1993C117.382 28.2321 117.132 28.2485 116.902 28.2485ZM126.704 28.3224C124.635 28.3224 123.022 27.7067 121.864 26.4753C120.715 25.2438 120.14 23.4828 120.14 21.1923C120.14 18.9757 120.744 17.2558 121.951 16.0325C123.166 14.8093 124.762 14.1977 126.741 14.1977C128.325 14.1977 129.664 14.5384 130.756 15.2198L129.992 17.5226C128.876 16.9397 127.837 16.6483 126.876 16.6483C125.785 16.6483 124.923 17.0382 124.29 17.8181C123.666 18.5981 123.355 19.7351 123.355 21.2293C123.355 22.7398 123.662 23.8892 124.278 24.6773C124.902 25.4655 125.78 25.8595 126.913 25.8595C128.096 25.8595 129.233 25.5106 130.325 24.8128L130.632 27.2634C130.066 27.641 129.479 27.9119 128.871 28.0761C128.264 28.2403 127.541 28.3224 126.704 28.3224ZM133.206 28.0638V14.5302H135.915L136.334 16.599C137.221 15.1787 138.505 14.4686 140.188 14.4686C140.542 14.4686 140.829 14.485 141.051 14.5178L141.001 17.2147C140.673 17.1655 140.332 17.1408 139.979 17.1408C138.789 17.1408 137.898 17.4569 137.307 18.0891C136.724 18.7212 136.433 19.5996 136.433 20.7244V28.0638H133.206ZM146.494 28.3224C145.237 28.3224 144.219 27.9776 143.44 27.288C142.668 26.5902 142.282 25.5886 142.282 24.2833C142.282 22.8794 142.742 21.8409 143.661 21.1677C144.581 20.4863 145.968 20.0553 147.823 19.8747C148.078 19.8418 148.353 19.809 148.649 19.7761C148.944 19.7433 149.277 19.7105 149.646 19.6776C150.015 19.6448 150.307 19.6161 150.52 19.5914V18.8772C150.52 18.0562 150.332 17.461 149.954 17.0916C149.576 16.7139 149.002 16.5251 148.23 16.5251C147.13 16.5251 145.771 16.833 144.154 17.4487C144.146 17.4241 144.01 17.0505 143.747 16.3281C143.485 15.6056 143.349 15.2362 143.341 15.2198C144.934 14.5384 146.658 14.1977 148.513 14.1977C150.336 14.1977 151.662 14.5958 152.491 15.3922C153.32 16.1803 153.734 17.461 153.734 19.2343V28.0638H151.345C151.337 28.031 151.247 27.756 151.075 27.2388C150.902 26.7215 150.816 26.4465 150.816 26.4137C150.143 27.0705 149.482 27.5548 148.833 27.8668C148.193 28.1706 147.413 28.3224 146.494 28.3224ZM147.368 26.0319C148.115 26.0319 148.764 25.8554 149.314 25.5024C149.872 25.1412 150.27 24.7061 150.508 24.1971V21.5864C150.483 21.5864 150.266 21.6028 149.855 21.6356C149.453 21.6685 149.236 21.6849 149.203 21.6849C147.897 21.7998 146.941 22.0461 146.333 22.4238C145.726 22.8014 145.422 23.4089 145.422 24.2463C145.422 24.821 145.59 25.2643 145.927 25.5763C146.264 25.8801 146.744 26.0319 147.368 26.0319ZM157.848 28.0638V16.6729H155.705L155.914 14.7765L157.848 14.5302V13.779C157.848 12.958 157.921 12.2561 158.069 11.6732C158.225 11.0903 158.476 10.5936 158.82 10.1831C159.165 9.76444 159.625 9.45657 160.2 9.25954C160.782 9.0543 161.497 8.95168 162.342 8.95168C163.163 8.95168 164.001 9.02967 164.854 9.18565L164.571 11.587C163.898 11.4967 163.369 11.4515 162.983 11.4515C162.293 11.4515 161.8 11.6198 161.505 11.9564C161.218 12.2848 161.074 12.8349 161.074 13.6066V14.5302H164.251V16.6729H161.074V28.0638H157.848ZM171.751 28.2485C170.831 28.2485 170.064 28.1418 169.448 27.9284C168.84 27.7067 168.364 27.3619 168.019 26.8939C167.675 26.426 167.428 25.8759 167.28 25.2438C167.141 24.6034 167.071 23.8153 167.071 22.8794V16.4882H164.854L164.978 14.7395L167.293 14.5302L168.327 10.8604L170.298 10.8481V14.5302H173.659V16.4882H170.298V22.941C170.298 23.9672 170.445 24.6979 170.741 25.133C171.036 25.5681 171.582 25.7856 172.379 25.7856C172.847 25.7856 173.347 25.7446 173.881 25.6625L173.967 27.9776C173.951 27.9776 173.848 27.9982 173.659 28.0392C173.479 28.072 173.302 28.1008 173.13 28.1254C172.966 28.1582 172.752 28.187 172.489 28.2116C172.227 28.2362 171.98 28.2485 171.751 28.2485Z" fill="black"/>
<path d="M183.228 28.0638V10.023H186.565V25.4039H194.114L194.015 28.0638H183.228ZM199.692 28.3224C198.436 28.3224 197.418 27.9776 196.638 27.288C195.867 26.5902 195.481 25.5886 195.481 24.2833C195.481 22.8794 195.94 21.8409 196.86 21.1677C197.779 20.4863 199.167 20.0553 201.022 19.8747C201.277 19.8418 201.552 19.809 201.847 19.7761C202.143 19.7433 202.475 19.7105 202.845 19.6776C203.214 19.6448 203.506 19.6161 203.719 19.5914V18.8772C203.719 18.0562 203.53 17.461 203.153 17.0916C202.775 16.7139 202.2 16.5251 201.429 16.5251C200.329 16.5251 198.97 16.833 197.353 17.4487C197.344 17.4241 197.209 17.0505 196.946 16.3281C196.683 15.6056 196.548 15.2362 196.54 15.2198C198.132 14.5384 199.856 14.1977 201.712 14.1977C203.534 14.1977 204.86 14.5958 205.689 15.3922C206.519 16.1803 206.933 17.461 206.933 19.2343V28.0638H204.544C204.536 28.031 204.446 27.756 204.273 27.2388C204.101 26.7215 204.015 26.4465 204.015 26.4137C203.341 27.0705 202.681 27.5548 202.032 27.8668C201.392 28.1706 200.612 28.3224 199.692 28.3224ZM200.567 26.0319C201.314 26.0319 201.962 25.8554 202.512 25.5024C203.071 25.1412 203.469 24.7061 203.707 24.1971V21.5864C203.682 21.5864 203.465 21.6028 203.054 21.6356C202.652 21.6685 202.434 21.6849 202.401 21.6849C201.096 21.7998 200.14 22.0461 199.532 22.4238C198.925 22.8014 198.621 23.4089 198.621 24.2463C198.621 24.821 198.789 25.2643 199.126 25.5763C199.462 25.8801 199.943 26.0319 200.567 26.0319ZM217.438 28.3224C216.518 28.3224 215.681 28.1213 214.925 27.719C214.178 27.3085 213.636 26.8447 213.3 26.3275L212.98 28.0515H210.184V9.54278L213.411 9.33343V13.5204C213.411 14.3331 213.386 15.2567 213.337 16.2911C214.404 14.8955 215.796 14.1977 217.511 14.1977C219.235 14.1977 220.586 14.838 221.563 16.1187C222.548 17.3994 223.041 19.0742 223.041 21.1431C223.041 23.294 222.532 25.0303 221.514 26.3521C220.504 27.6657 219.145 28.3224 217.438 28.3224ZM216.662 25.8718C217.622 25.8718 218.39 25.4655 218.965 24.6527C219.539 23.8399 219.827 22.6865 219.827 21.1923C219.827 19.6899 219.543 18.5529 218.977 17.7812C218.419 17.0095 217.659 16.6236 216.699 16.6236C214.515 16.6236 213.411 18.0973 213.386 21.0445C213.386 22.7029 213.661 23.922 214.211 24.702C214.761 25.4819 215.578 25.8718 216.662 25.8718ZM229.998 28.3101C228.003 28.3101 226.407 27.9694 225.208 27.288L225.54 24.862C226.082 25.1576 226.772 25.4244 227.609 25.6625C228.447 25.8924 229.21 26.0073 229.9 26.0073C230.614 26.0073 231.168 25.8759 231.562 25.6132C231.965 25.3423 232.17 24.9483 232.178 24.431C232.178 23.9631 231.989 23.5937 231.612 23.3227C231.242 23.0518 230.532 22.7152 229.481 22.3129C229.12 22.1816 228.886 22.0954 228.779 22.0543C227.531 21.57 226.632 21.0322 226.082 20.4411C225.532 19.8418 225.257 19.0332 225.257 18.0152C225.257 16.7837 225.701 15.8396 226.587 15.1828C227.482 14.5261 228.726 14.1977 230.319 14.1977C232.043 14.1977 233.557 14.522 234.863 15.1705L234.062 17.3994C232.773 16.8001 231.546 16.5005 230.38 16.5005C229.732 16.5005 229.223 16.6113 228.853 16.833C228.492 17.0464 228.311 17.3748 228.311 17.8181C228.311 18.2368 228.488 18.5652 228.841 18.8033C229.194 19.0332 229.883 19.3369 230.91 19.7146C230.942 19.7228 231.049 19.7597 231.23 19.8254C231.41 19.8911 231.55 19.9444 231.648 19.9855C232.888 20.437 233.799 20.9789 234.382 21.611C234.965 22.235 235.257 23.0518 235.257 24.0616C235.248 25.4162 234.789 26.4629 233.877 27.2018C232.966 27.9407 231.673 28.3101 229.998 28.3101Z" fill="#F63366"/>
</g>
<defs>
<filter id="filter0_d" x="32.539" y="8.95168" width="211.124" height="36.1842" filterUnits="userSpaceOnUse" color-interpolation-filters="sRGB">
<feFlood flood-opacity="0" result="BackgroundImageFix"/>
<feColorMatrix in="SourceAlpha" type="matrix" values="0 0 0 0 0 0 0 0 0 0 0 0 0 0 0 0 0 0 127 0"/>
<feOffset dy="8.40672"/>
<feGaussianBlur stdDeviation="4.20336"/>
<feColorMatrix type="matrix" values="0 0 0 0 0 0 0 0 0 0 0 0 0 0 0 0 0 0 0.25 0"/>
<feBlend mode="normal" in2="BackgroundImageFix" result="effect1_dropShadow"/>
<feBlend mode="normal" in="SourceGraphic" in2="effect1_dropShadow" result="shape"/>
</filter>
<linearGradient id="paint0_linear" x1="2.52062" y1="27.6153" x2="35.0944" y2="11.1394" gradientUnits="userSpaceOnUse">
<stop offset="0.239583" stop-color="#F63366"/>
<stop offset="0.635417" stop-color="#FCB677"/>
<stop offset="0.9999" stop-color="#FFFD80"/>
<stop offset="1" stop-color="white"/>
</linearGradient>
<clipPath id="clip0">
<rect width="37" height="38" fill="white"/>
</clipPath>
</defs>
</svg>
